<?xml version="1.0" encoding="UTF-8" standalone="no"?>
<svg xmlns="http://www.w3.org/2000/svg" xmlns:xlink="http://www.w3.org/1999/xlink" width="76.200mm" height="30.465mm" viewBox="149.042145 292.998657 76.199997 30.465118">
    <path style="stroke:none;fill:#000000;fill-rule:evenodd" d="M217.2117,302.551147L217.2117,295.056061L214.35643,295.056061L211.50116,295.056061L211.50116,294.029968L211.50116,293.003845L218.371643,293.003845L225.242142,293.003845L225.242142,294.029968L225.242142,295.056061L222.386871,295.056061L219.531601,295.056061L219.531601,302.551147L219.531601,310.046234L218.371643,310.046234L217.2117,310.046234L217.2117,302.551147z"/>
    <path style="stroke:none;fill:#000000;fill-rule:evenodd" d="M197.802292,309.937378C197.778336,309.874542,197.769104,306.048859,197.781754,301.435822L197.804764,293.048462L198.98703,293.02356L200.169281,292.998657L200.169281,296.526581L200.169281,300.054474L204.519104,300.031342L208.868927,300.008179L208.892273,296.506012L208.915619,293.003845L210.074524,293.003845L211.233459,293.003845L211.233459,301.525024L211.233459,310.046234L210.073502,310.046234L208.913544,310.046234L208.913544,306.075623L208.913544,302.105011L204.542343,302.105011L200.171143,302.105011L200.147903,306.053314L200.12468,310.001617L198.98526,310.026611C198.123123,310.045502,197.835236,310.023804,197.802292,309.937378z"/>
    <path style="stroke:none;fill:#000000;fill-rule:evenodd" d="M179.468597,301.525024L179.468597,293.003845L180.62854,293.003845L181.788498,293.003845L181.788498,301.525024L181.788498,310.046234L180.62854,310.046234L179.468597,310.046234L179.468597,301.525024z"/>
    <path style="stroke:none;fill:#000000;fill-rule:evenodd" d="M163.764618,301.525024L163.764618,293.003845L165.125336,293.006744L166.486053,293.009613L170.724335,299.849426L174.962631,306.68924L174.985489,299.846558L175.008347,293.003845L176.078522,293.003845L177.148682,293.003845L177.148682,301.525024L177.148682,310.046234L175.877197,310.044373L174.605713,310.042511L170.322815,303.242645L166.039917,296.44278L166.017044,303.244507L165.994186,310.046234L164.879395,310.046234L163.764618,310.046234L163.764618,301.525024z"/>
    <path style="stroke:none;fill:#000000;fill-rule:evenodd" d="M149.042145,301.52771L149.042145,293.003845L150.202103,293.003845L151.362045,293.003845L151.362045,297.130249L151.362045,301.256622L155.491302,297.128113L159.620544,292.999573L161.193268,293.024017L162.765976,293.048462L160.789246,294.962036C159.702042,296.014496,158.118973,297.552582,157.271317,298.380035L155.730103,299.884491L159.284836,304.853821C161.239944,307.586975,162.8694,309.873352,162.905838,309.934692C162.957794,310.022125,162.647369,310.046234,161.469162,310.046234L159.966217,310.046234L157.024841,305.811981C155.407089,303.483154,154.057587,301.575928,154.025925,301.5737C153.994278,301.571472,153.382492,302.135345,152.666412,302.826782L151.364441,304.083893L151.340942,307.042755L151.317444,310.001617L150.179794,310.026581L149.042145,310.051544L149.042145,301.52771z"/>
    <path style="stroke:none;fill:#000000;fill-rule:evenodd" d="M197.802429,313.146881C197.779694,313.08551,197.642975,312.68399,197.498596,312.254608L197.236115,311.473846L211.239105,311.473846L225.242111,311.473846L225.242111,312.366119L225.242111,313.258392L211.542938,313.258392C200.665146,313.258392,197.835266,313.235443,197.802429,313.146881z"/>
    <path style="stroke:none;fill:#000000;fill-rule:evenodd" d="M183.803253,312.66803C184.289215,311.376923,184.206039,311.473846,184.828049,311.473846L185.378357,311.473846L185.046997,311.107086C184.622665,310.637421,184.465317,310.253876,184.465317,309.689331C184.465317,309.107147,184.636292,308.707611,185.012207,308.411407C185.267365,308.210358,185.285233,308.174286,185.130066,308.173462C184.805084,308.171692,184.737,308.014008,184.880005,307.59433C184.997971,307.248138,185.04184,307.208923,185.358856,307.166412C185.757233,307.112976,186.358917,306.838348,186.404877,306.688995C186.421875,306.633728,186.173264,306.382233,185.852402,306.130066C184.798157,305.301575,183.990356,304.047302,183.515839,302.502136C183.291504,301.771606,183.270248,301.577911,183.266785,300.231232C183.26236,298.5065,183.404831,297.856201,184.066971,296.57901C184.77153,295.220032,186.021744,294.09137,187.333252,293.630371C188.134949,293.348572,189.568802,293.284027,190.355423,293.494354C190.673798,293.579468,191.029114,293.670074,191.145035,293.695709C191.282181,293.726013,191.578217,293.628876,191.992691,293.417542C192.342987,293.238922,192.760086,293.067749,192.919586,293.03717C193.163956,292.990295,193.209137,293.007843,193.206787,293.148834C193.205261,293.240845,193.105072,293.476746,192.984177,293.673035C192.725845,294.092468,192.710266,294.316956,192.92157,294.57547C193.166809,294.875488,194.040436,295.546875,194.537842,295.817596C195.013397,296.076416,195.120514,296.28891,194.815659,296.368622C194.587524,296.428284,194.589386,296.442383,194.895828,296.974457C195.200745,297.503876,195.64798,297.978577,196.199081,298.357758C196.719482,298.71579,196.728928,298.956299,196.243286,299.483154C196.046997,299.696106,195.886383,299.909973,195.886383,299.958435C195.886383,300.147491,195.530792,300.245514,195.218704,300.142517C194.928452,300.046722,194.280304,299.431335,194.280304,299.251556C194.280304,299.203735,194.181381,299.099823,194.060486,299.020599C193.857361,298.887512,193.793854,298.888641,193.22438,299.035339C192.688461,299.17337,192.542328,299.179382,192.103729,299.081207C191.074936,298.850983,190.407532,298.024597,190.412933,296.987671C190.414505,296.685669,190.481125,296.286316,190.561142,296.099213C190.705963,295.76062,190.705765,295.759583,190.508102,295.820679C189.861526,296.020538,189.201736,296.57486,189.009918,297.079407C188.859772,297.474304,188.912781,298.042664,189.129944,298.366577C189.430725,298.815216,190.047653,299.096771,191.73732,299.556488C192.571594,299.783478,193.497833,300.082855,193.795639,300.221771C194.897125,300.735626,195.38678,301.602264,195.185913,302.682434C195.049622,303.415314,194.611938,304.268799,194.116287,304.768311L193.704407,305.18335L193.655624,304.46701C193.597046,303.607178,193.404053,303.277283,192.772293,302.957153C192.193771,302.664001,191.573578,302.568634,189.583832,302.466827C187.145416,302.342102,186.357513,302.127716,185.857544,301.452911C185.71347,301.258453,185.661667,301.023926,185.626266,300.405853L185.580658,299.609406L185.370377,299.917419C185.059784,300.372375,184.919769,300.836029,184.915359,301.424011C184.911713,301.912842,184.933777,301.969879,185.248062,302.28418C185.433197,302.469299,185.744385,302.66626,185.939575,302.721802C186.134766,302.777374,186.977051,302.847473,187.811325,302.877594C188.645599,302.907684,189.398468,302.968414,189.484344,303.012543C189.700287,303.123505,189.679703,303.344299,189.417419,303.730255C189.131622,304.150848,189.136292,304.337189,189.439728,304.621094C189.930695,305.080475,190.673325,305.303986,192.183456,305.446869C193.078766,305.531616,193.355652,305.640991,194.053192,306.185486C194.766037,306.741943,195.03038,306.890686,195.615509,307.064423C196.106079,307.210114,196.308121,307.403564,196.38826,307.80426C196.43689,308.047394,196.41684,308.101227,196.262604,308.141541C196.088043,308.187195,196.093597,308.208588,196.376007,308.578552C196.845963,309.194244,196.944351,310.027771,196.618835,310.635986C196.564667,310.737213,196.357513,310.967163,196.158493,311.146942L195.796646,311.473846L196.369522,311.473846L196.942398,311.473846L197.217438,312.299438C197.368713,312.75351,197.492477,313.155029,197.492477,313.191711C197.492477,313.228394,194.362396,313.258392,190.536758,313.258392L183.581039,313.258392L183.803253,312.66803zM195.819458,298.922974C195.758118,298.898224,195.657745,298.898224,195.596405,298.922974C195.535049,298.947723,195.585236,298.967987,195.707932,298.967987C195.830627,298.967987,195.880814,298.947723,195.819458,298.922974zM193.120346,296.4534C193.120346,296.317688,192.752838,296.126801,192.491547,296.126801C192.260147,296.126801,192.270767,296.262543,192.51561,296.434021C192.758835,296.604401,193.120346,296.615967,193.120346,296.4534z"/>
    <path style="stroke:none;fill:#000000;fill-rule:evenodd" d="M149.131378,312.366119L149.131378,311.473846L166.568512,311.473846L184.005661,311.473846L183.644989,312.366119L183.284317,313.258392L166.20784,313.258392L149.131378,313.258392L149.131378,312.366119z"/>
    <path style="stroke:none;fill:#000000;fill-rule:evenodd" d="M223.72525,321.467285L223.72525,320.931946L224.216003,320.931946L224.706757,320.931946L224.706757,321.467285L224.706757,322.002655L224.216003,322.002655L223.72525,322.002655L223.72525,321.467285z"/>
    <path style="stroke:none;fill:#000000;fill-rule:evenodd" d="M210.251953,318.433563L210.251953,314.864502L210.825714,314.864502L211.399475,314.864502L213.123322,317.673859L214.847153,320.483246L214.870712,317.673859L214.894272,314.864502L215.383759,314.864502L215.87326,314.864502L215.87326,318.433563L215.87326,322.002655L215.304886,322.002655L214.736511,322.002655L213.016083,319.233521C212.069839,317.71051,211.261566,316.443359,211.21994,316.417603C211.178299,316.391876,211.144226,317.638,211.144226,319.186737L211.144226,322.002655L210.69809,322.002655L210.251953,322.002655L210.251953,318.433563z"/>
    <path style="stroke:none;fill:#000000;fill-rule:evenodd" d="M208.110504,318.433563L208.110504,314.864502L208.601257,314.864502L209.091995,314.864502L209.091995,318.433563L209.091995,322.002655L208.601257,322.002655L208.110504,322.002655L208.110504,318.433563z"/>
    <path style="stroke:none;fill:#000000;fill-rule:evenodd" d="M198.206299,318.433563L198.206299,314.864502L198.697037,314.864502L199.18779,314.864502L199.18779,317.987427L199.18779,321.110382L200.927719,321.110382L202.667648,321.110382L202.667648,321.556519L202.667648,322.002655L200.436966,322.002655L198.206299,322.002655L198.206299,318.433563z"/>
    <path style="stroke:none;fill:#000000;fill-rule:evenodd" d="M191.438324,321.930511C191.455551,321.88562,192.051849,320.276245,192.763428,318.354065L194.05722,314.859222L194.623627,314.884155L195.190002,314.909119L196.430466,318.383667C197.112717,320.294647,197.670929,321.890686,197.670929,321.93042C197.670929,321.970154,197.439743,322.002655,197.157166,322.002655L196.643433,322.002655L196.287201,320.954254L195.931,319.905823L194.552704,319.905823L193.174423,319.905823L192.81221,320.931946L192.449997,321.958038L191.928497,321.985077C191.638367,322.000122,191.420898,321.975891,191.438324,321.930511zM195.097916,317.535614L194.59259,316.013031L194.470993,316.308716C194.404114,316.471344,194.154449,317.156525,193.916199,317.831299L193.483032,319.058167L194.543137,319.058167L195.603241,319.058167L195.097916,317.535614z"/>
    <path style="stroke:none;fill:#000000;fill-rule:evenodd" d="M189.908173,318.433563L189.908173,314.864502L190.398926,314.864502L190.889664,314.864502L190.889664,318.433563L190.889664,322.002655L190.398926,322.002655L189.908173,322.002655L189.908173,318.433563z"/>
    <path style="stroke:none;fill:#000000;fill-rule:evenodd" d="M183.126907,318.426514L183.126907,314.850342L185.246048,314.879883C187.228928,314.907562,187.388855,314.922089,187.733185,315.10614C188.253494,315.384216,188.540207,315.764587,188.65831,316.333435C188.822433,317.124084,188.707718,317.580566,188.216919,318.089752L187.79895,318.523407L188.004654,318.658173C188.417664,318.928802,188.511108,319.200012,188.581955,320.333832C188.636749,321.210876,188.683167,321.456177,188.83255,321.658234C188.933395,321.794617,189.0159,321.927917,189.0159,321.954437C189.0159,322.000671,187.776184,322.026215,187.757751,321.980347C187.752808,321.968079,187.699203,321.403442,187.638611,320.725586C187.536133,319.579071,187.511749,319.47644,187.288818,319.253357C187.05101,319.015381,187.037994,319.013336,185.578796,318.983582L184.108398,318.953583L184.108398,320.478119L184.108398,322.002655L183.617661,322.002655L183.126907,322.002655L183.126907,318.426514zM187.141144,317.943329C187.545059,317.734467,187.67749,317.473877,187.67749,316.887939C187.67749,316.410492,187.650314,316.336334,187.374115,316.06012L187.07074,315.756775L185.589569,315.756775L184.108398,315.756775L184.108398,316.916718L184.108398,318.07666L185.49585,318.07666C186.552277,318.07666,186.944824,318.044861,187.141144,317.943329z"/>
    <path style="stroke:none;fill:#000000;fill-rule:evenodd" d="M179.200912,318.8797L179.200912,315.756775L177.996353,315.756775L176.791779,315.756775L176.791779,315.310638L176.791779,314.864502L179.696548,314.864502L182.601318,314.864502L182.574127,315.28833L182.546936,315.712158L181.36467,315.737061L180.182404,315.761932L180.182404,318.882294L180.182404,322.002655L179.691666,322.002655L179.200912,322.002655L179.200912,318.8797z"/>
    <path style="stroke:none;fill:#000000;fill-rule:evenodd" d="M157.964859,318.433563L157.964859,314.864502L159.643982,314.864502C161.770065,314.864502,162.069672,314.939819,162.783676,315.653809C163.54277,316.412903,163.713501,316.914581,163.714493,318.388977C163.71521,319.469849,163.697495,319.591492,163.454544,320.173492C163.274658,320.604462,163.051285,320.94104,162.733994,321.259155C162.072662,321.922272,161.738495,322.002655,159.643982,322.002655L157.964859,322.002655L157.964859,318.433563zM161.185043,321.100342C161.537964,321.024658,161.73761,320.911407,162.025192,320.62384C162.544464,320.104553,162.734253,319.518311,162.734253,318.433563C162.734253,317.083099,162.365692,316.280334,161.582245,315.924469C161.293716,315.793427,160.994263,315.760284,160.084,315.758728L158.94635,315.756775L158.94635,318.47818L158.94635,321.199615L159.834229,321.199615C160.322571,321.199615,160.930435,321.154938,161.185043,321.100342z"/>
    <path style="stroke:none;fill:#000000;fill-rule:evenodd" d="M151.183594,318.433563L151.183594,314.864502L151.785873,314.865723L152.388168,314.866974L154.079056,317.637543C155.009033,319.161377,155.802048,320.427979,155.841293,320.45224C155.880524,320.476501,155.912628,319.229156,155.912628,317.68042L155.912628,314.864502L156.358765,314.864502L156.804901,314.864502L156.804901,318.433563L156.804901,322.002655L156.247238,321.999664L155.68956,321.996674L153.949631,319.186707L152.209702,316.37674L152.186142,319.189697L152.162582,322.002655L151.673096,322.002655L151.183594,322.002655L151.183594,318.433563z"/>
    <path style="stroke:none;fill:#000000;fill-rule:evenodd" d="M149.131378,318.433563L149.131378,314.864502L149.622116,314.864502L150.112869,314.864502L150.112869,318.433563L150.112869,322.002655L149.622116,322.002655L149.131378,322.002655L149.131378,318.433563z"/>
    <path style="stroke:none;fill:#000000;fill-rule:evenodd" d="M218.701584,322.057281C217.469788,321.599762,216.746643,320.454956,216.623657,318.767792C216.519196,317.334717,216.816711,316.411072,217.653534,315.570526C218.365387,314.855499,218.926498,314.657898,220.111542,314.704895C220.798309,314.732147,221.087433,314.783936,221.366821,314.929779C221.987518,315.253754,222.595306,316.03949,222.748505,316.715942L222.814178,317.005951L222.33403,317.005951C221.863525,317.005951,221.851074,316.999207,221.714111,316.671326C221.396515,315.911041,220.85022,315.578308,219.919525,315.578308C218.87558,315.578308,218.110367,316.138916,217.797775,317.132721C217.623871,317.685638,217.591278,319.104309,217.739807,319.655945C217.92804,320.355011,218.47406,320.979767,219.076447,321.185333C219.48645,321.325256,220.364227,321.316132,220.718094,321.168304C221.228485,320.955048,221.640564,320.353149,221.903137,319.437378C221.923401,319.366699,222.10379,319.325836,222.395782,319.325836L222.856476,319.325836L222.809418,319.676727C222.688507,320.578064,222.005981,321.514069,221.1754,321.91748C220.628113,322.183289,219.250488,322.261169,218.701584,322.057281z"/>
    <path style="stroke:none;fill:#000000;fill-rule:evenodd" d="M166.327011,322.052887C165.60083,321.793823,165.143433,321.330109,164.850342,320.555847C164.731598,320.242126,164.70018,319.697144,164.675293,317.518982L164.644958,314.864502L165.135635,314.864502L165.626297,314.864502L165.654648,317.474396C165.682846,320.069305,165.68428,320.086548,165.906067,320.477905C166.028763,320.694397,166.23262,320.947998,166.359116,321.041473C167.11702,321.601654,168.495743,321.309143,168.979584,320.485504C169.151428,320.192963,169.164627,320.007843,169.191132,317.518982L169.219406,314.864502L169.711075,314.864502L170.202759,314.864502L170.173553,317.565796L170.144363,320.26709L169.844833,320.875214C169.525391,321.523773,169.071747,321.907959,168.407516,322.092499C167.956131,322.217896,166.723785,322.194427,166.327011,322.052887z"/>
    <path style="stroke:none;fill:#000000;fill-rule:evenodd" d="M173.20401,322.17038C171.980286,321.99942,171.149292,321.220612,171.019272,320.122803L170.967163,319.68277L171.424026,319.68277C171.850815,319.68277,171.884186,319.698914,171.930878,319.928131C172.120758,320.860321,172.658615,321.28894,173.725983,321.358673C174.909241,321.435944,175.631836,320.965546,175.631836,320.117981C175.631836,319.388763,175.279602,319.178925,173.267303,318.70929C171.727142,318.349854,171.264023,317.922943,171.261169,316.859985C171.258469,315.854675,171.889832,315.022552,172.838379,314.781219C173.369888,314.645996,174.274124,314.663422,174.797989,314.819C175.716278,315.091705,176.258301,315.69342,176.392639,316.589233L176.45665,317.016022L175.98259,316.988678C175.524429,316.96225,175.505859,316.950958,175.428848,316.652283C175.233673,315.895294,174.706573,315.578094,173.644714,315.578644C172.876602,315.579041,172.477783,315.774292,172.280441,316.246613C172.091431,316.698975,172.122284,316.970276,172.397339,317.274597C172.612793,317.51297,172.816864,317.589386,174.070358,317.901184C175.692657,318.304718,176.095764,318.518829,176.412567,319.145172C176.762802,319.837646,176.647491,320.772797,176.140671,321.350037C175.808029,321.728882,175.131287,322.066528,174.561722,322.137756C174.340546,322.165436,174.059204,322.200104,173.936508,322.214813C173.813828,322.229492,173.484192,322.209503,173.20401,322.17038z"/>
    <path style="stroke:none;fill:#000000;fill-rule:evenodd" d="M203.292236,323.287537C203.292236,323.16037,203.389221,322.98053,203.518311,322.868347C203.652542,322.751709,203.766052,322.535919,203.797668,322.33725C203.849701,322.010529,203.844391,322.002655,203.571594,322.002655L203.292236,322.002655L203.292236,321.467285L203.292236,320.931946L203.827606,320.931946L204.362961,320.931946L204.359039,321.623444C204.353119,322.668396,204.10144,323.228149,203.551254,323.419952C203.310455,323.503876,203.292236,323.494568,203.292236,323.287537z"/>
</svg>
